<svg width="20" height="20" viewBox="0 0 20 20" fill="none" xmlns="http://www.w3.org/2000/svg">
<path d="M17.5 12.5V15H20V16.6667H17.5V19.1667H15.8333V16.6667H13.3333V15H15.8333V12.5H17.5ZM17.5066 2.5C17.9633 2.5 18.3333 2.87083 18.3333 3.3275V11.1183C17.798 10.9292 17.2343 10.8329 16.6666 10.8333V4.16667H3.33329L3.33413 15.8333L11.0775 8.08917C11.2208 7.9454 11.4116 7.85894 11.6142 7.84605C11.8168 7.83316 12.0171 7.89473 12.1775 8.01917L12.2558 8.09L15.21 11.0483C14.5638 11.2452 13.9643 11.5709 13.4474 12.0058C12.9306 12.4407 12.5071 12.9757 12.2027 13.5787C11.8982 14.1816 11.719 14.84 11.6758 15.5141C11.6327 16.1881 11.7265 16.864 11.9516 17.5008L2.49329 17.5C2.27397 17.4998 2.06371 17.4125 1.9087 17.2573C1.75369 17.1022 1.66663 16.8918 1.66663 16.6725V3.3275C1.66815 3.10865 1.75571 2.89918 1.91039 2.74435C2.06506 2.58951 2.27444 2.50175 2.49329 2.5H17.5066ZM6.66663 5.83333C7.10865 5.83333 7.53258 6.00893 7.84514 6.32149C8.1577 6.63405 8.33329 7.05797 8.33329 7.5C8.33329 7.94203 8.1577 8.36595 7.84514 8.67851C7.53258 8.99107 7.10865 9.16667 6.66663 9.16667C6.2246 9.16667 5.80067 8.99107 5.48811 8.67851C5.17555 8.36595 4.99996 7.94203 4.99996 7.5C4.99996 7.05797 5.17555 6.63405 5.48811 6.32149C5.80067 6.00893 6.2246 5.83333 6.66663 5.83333Z" fill="#141414"/>
</svg>
