<svg width="20" height="20" viewBox="0 0 20 20" fill="none" xmlns="http://www.w3.org/2000/svg">
<path d="M10 7.5C9.337 7.5 8.70111 7.76339 8.23227 8.23223C7.76343 8.70107 7.50004 9.33696 7.50004 10C7.50004 10.663 7.76343 11.2989 8.23227 11.7678C8.70111 12.2366 9.337 12.5 10 12.5C10.6631 12.5 11.299 12.2366 11.7678 11.7678C12.2366 11.2989 12.5 10.663 12.5 10C12.5 9.33696 12.2366 8.70107 11.7678 8.23223C11.299 7.76339 10.6631 7.5 10 7.5ZM10 14.1667C8.89497 14.1667 7.83516 13.7277 7.05376 12.9463C6.27236 12.1649 5.83337 11.1051 5.83337 10C5.83337 8.89493 6.27236 7.83512 7.05376 7.05372C7.83516 6.27232 8.89497 5.83333 10 5.83333C11.1051 5.83333 12.1649 6.27232 12.9463 7.05372C13.7277 7.83512 14.1667 8.89493 14.1667 10C14.1667 11.1051 13.7277 12.1649 12.9463 12.9463C12.1649 13.7277 11.1051 14.1667 10 14.1667ZM10 3.75C5.83337 3.75 2.27504 6.34167 0.833374 10C2.27504 13.6583 5.83337 16.25 10 16.25C14.1667 16.25 17.725 13.6583 19.1667 10C17.725 6.34167 14.1667 3.75 10 3.75Z" fill="#141414"/>
</svg>
