<svg width="20" height="20" viewBox="0 0 20 20" fill="none" xmlns="http://www.w3.org/2000/svg">
<path d="M10 7.29169C9.28173 7.29169 8.59285 7.57703 8.08494 8.08494C7.57703 8.59285 7.29169 9.28173 7.29169 10C7.29169 10.7183 7.57703 11.4072 8.08494 11.9151C8.59285 12.423 9.28173 12.7084 10 12.7084C10.7183 12.7084 11.4072 12.423 11.9151 11.9151C12.423 11.4072 12.7084 10.7183 12.7084 10C12.7084 9.28173 12.423 8.59285 11.9151 8.08494C11.4072 7.57703 10.7183 7.29169 10 7.29169Z" fill="#141414"/>
<path fill-rule="evenodd" clip-rule="evenodd" d="M10.5666 2.33833C10.3933 2.24201 10.1983 2.19147 9.99998 2.19147C9.80168 2.19147 9.60665 2.24201 9.43331 2.33833L3.43331 5.67166C3.25143 5.77273 3.09989 5.9206 2.99439 6.09994C2.88889 6.27929 2.83328 6.48359 2.83331 6.69166V13.3083C2.83331 13.7325 3.06331 14.1225 3.43331 14.3283L9.43331 17.6617C9.60665 17.758 9.80168 17.8085 9.99998 17.8085C10.1983 17.8085 10.3933 17.758 10.5666 17.6617L16.5666 14.3283C16.7484 14.2273 16.8999 14.0796 17.0054 13.9004C17.1108 13.7212 17.1665 13.5171 17.1666 13.3092V6.69166C17.1667 6.48359 17.1111 6.27929 17.0056 6.09994C16.9001 5.9206 16.7485 5.77273 16.5666 5.67166L10.5666 2.33833ZM6.04165 10C6.04165 8.95018 6.45868 7.94336 7.20102 7.20103C7.94335 6.4587 8.95016 6.04166 9.99998 6.04166C11.0498 6.04166 12.0566 6.4587 12.7989 7.20103C13.5413 7.94336 13.9583 8.95018 13.9583 10C13.9583 11.0498 13.5413 12.0566 12.7989 12.799C12.0566 13.5413 11.0498 13.9583 9.99998 13.9583C8.95016 13.9583 7.94335 13.5413 7.20102 12.799C6.45868 12.0566 6.04165 11.0498 6.04165 10Z" fill="#141414"/>
</svg>
