<svg width="20" height="20" viewBox="0 0 20 20" fill="none" xmlns="http://www.w3.org/2000/svg">
<path d="M16.9792 2.5C16.6917 2.5 16.4583 2.73333 16.4583 3.02083V16.9792C16.4583 17.1173 16.5132 17.2498 16.6109 17.3475C16.7086 17.4451 16.841 17.5 16.9792 17.5C17.1173 17.5 17.2498 17.4451 17.3475 17.3475C17.4451 17.2498 17.5 17.1173 17.5 16.9792V3.02083C17.5 2.73333 17.2667 2.5 16.9792 2.5ZM2.5 3.85667C2.5 2.76708 3.72125 2.12333 4.62 2.74L13.58 8.88292C14.3646 9.42042 14.3646 10.5788 13.58 11.1163L4.62 17.26C3.72083 17.875 2.5 17.2321 2.5 16.1429V3.85667Z" fill="white"/>
</svg>
