<svg width="20" height="20" viewBox="0 0 20 20" fill="none" xmlns="http://www.w3.org/2000/svg">
<path d="M4.50001 2C4.63262 2 4.75979 2.05268 4.85356 2.14645C4.94733 2.24021 5.00001 2.36739 5.00001 2.5C5.00001 6.124 7.87601 9 11.5 9H12.293L11.146 7.854C11.0995 7.80751 11.0626 7.75232 11.0375 7.69158C11.0123 7.63084 10.9994 7.56574 10.9994 7.5C10.9994 7.43426 11.0123 7.36916 11.0375 7.30842C11.0626 7.24768 11.0995 7.19249 11.146 7.146C11.2399 7.05211 11.3672 6.99937 11.5 6.99937C11.5658 6.99937 11.6309 7.01232 11.6916 7.03748C11.7523 7.06264 11.8075 7.09951 11.854 7.146L13.854 9.146C13.9006 9.19245 13.9375 9.24762 13.9627 9.30837C13.9879 9.36911 14.0009 9.43423 14.0009 9.5C14.0009 9.56577 13.9879 9.63089 13.9627 9.69163C13.9375 9.75238 13.9006 9.80755 13.854 9.854L11.854 11.854C11.8075 11.9005 11.7523 11.9374 11.6916 11.9625C11.6309 11.9877 11.5658 12.0006 11.5 12.0006C11.4343 12.0006 11.3692 11.9877 11.3084 11.9625C11.2477 11.9374 11.1925 11.9005 11.146 11.854C11.0995 11.8075 11.0626 11.7523 11.0375 11.6916C11.0123 11.6308 10.9994 11.5657 10.9994 11.5C10.9994 11.4343 11.0123 11.3692 11.0375 11.3084C11.0626 11.2477 11.0995 11.1925 11.146 11.146L12.293 10H11.5C10.6448 9.99429 9.79702 10.1585 9.00582 10.4831C8.21462 10.8078 7.4958 11.2863 6.89107 11.8911C6.28635 12.4958 5.80778 13.2146 5.48315 14.0058C5.15852 14.797 4.99429 15.6448 5.00001 16.5C5.00001 16.6326 4.94733 16.7598 4.85356 16.8536C4.75979 16.9473 4.63262 17 4.50001 17C4.3674 17 4.24022 16.9473 4.14645 16.8536C4.05269 16.7598 4.00001 16.6326 4.00001 16.5C3.99108 14.9861 4.4434 13.5054 5.29676 12.255C6.15011 11.0045 7.36405 10.0435 8.77701 9.5C7.36405 8.95646 6.15011 7.99551 5.29676 6.74504C4.4434 5.49457 3.99108 4.01388 4.00001 2.5C4.00001 2.36739 4.05269 2.24021 4.14645 2.14645C4.24022 2.05268 4.3674 2 4.50001 2ZM10.032 11.193C8.80507 11.5222 7.73227 12.2709 7.00001 13.309V14C7.00001 14.5304 7.21072 15.0391 7.58579 15.4142C7.96087 15.7893 8.46957 16 9.00001 16H15C15.5304 16 16.0391 15.7893 16.4142 15.4142C16.7893 15.0391 17 14.5304 17 14V5C17 4.46957 16.7893 3.96086 16.4142 3.58579C16.0391 3.21071 15.5304 3 15 3H9.00001C8.46957 3 7.96087 3.21071 7.58579 3.58579C7.21072 3.96086 7.00001 4.46957 7.00001 5V5.691C7.73221 6.72912 8.80504 7.47783 10.032 7.807C9.9656 7.49082 10.0031 7.16164 10.139 6.86852C10.2749 6.57539 10.5018 6.33401 10.786 6.18033C11.0702 6.02666 11.3964 5.96891 11.7161 6.01571C12.0358 6.0625 12.3318 6.21132 12.56 6.44L14.56 8.44C14.6994 8.5793 14.81 8.7447 14.8854 8.92675C14.9609 9.1088 14.9997 9.30394 14.9997 9.501C14.9997 9.69806 14.9609 9.8932 14.8854 10.0752C14.81 10.2573 14.6994 10.4227 14.56 10.562L12.56 12.562C12.3317 12.791 12.0354 12.94 11.7154 12.987C11.3955 13.0339 11.0689 12.9761 10.7844 12.8223C10.5 12.6685 10.2728 12.4268 10.1369 12.1334C10.0009 11.84 9.96343 11.5105 10.03 11.194L10.032 11.193Z" fill="white"/>
</svg>
