<svg width="20" height="20" viewBox="0 0 20 20" fill="none" xmlns="http://www.w3.org/2000/svg">
<g clip-path="url(#clip0_82_2)">
<path d="M8.75004 16.6666C8.75004 16.9982 8.88174 17.3161 9.11616 17.5505C9.35058 17.7849 9.66852 17.9166 10 17.9166C10.3316 17.9166 10.6495 17.7849 10.8839 17.5505C11.1183 17.3161 11.25 16.9982 11.25 16.6666V11.25H16.6667C16.9982 11.25 17.3162 11.1183 17.5506 10.8839C17.785 10.6494 17.9167 10.3315 17.9167 9.99998C17.9167 9.66846 17.785 9.35052 17.5506 9.1161C17.3162 8.88168 16.9982 8.74998 16.6667 8.74998H11.25V3.33331C11.25 3.00179 11.1183 2.68385 10.8839 2.44943C10.6495 2.21501 10.3316 2.08331 10 2.08331C9.66852 2.08331 9.35058 2.21501 9.11616 2.44943C8.88174 2.68385 8.75004 3.00179 8.75004 3.33331V8.74998H3.33337C3.00185 8.74998 2.68391 8.88168 2.44949 9.1161C2.21507 9.35052 2.08337 9.66846 2.08337 9.99998C2.08337 10.3315 2.21507 10.6494 2.44949 10.8839C2.68391 11.1183 3.00185 11.25 3.33337 11.25H8.75004V16.6666Z" fill="white"/>
</g>
<defs>
<clipPath id="clip0_82_2">
<rect width="20" height="20" fill="white"/>
</clipPath>
</defs>
</svg>
