<svg width="20" height="20" viewBox="0 0 20 20" fill="none" xmlns="http://www.w3.org/2000/svg">
<g clip-path="url(#clip0_79_27)">
<path d="M14.472 0.194638C14.4101 0.132553 14.3365 0.0832962 14.2555 0.0496876C14.1745 0.016079 14.0877 -0.0012207 14 -0.0012207C13.9123 -0.0012207 13.8255 0.016079 13.7445 0.0496876C13.6635 0.0832962 13.5899 0.132553 13.528 0.194638L0 13.724V19.3333C0 19.5101 0.0702379 19.6797 0.195262 19.8047C0.320286 19.9297 0.489856 20 0.666667 20H6.276L19.8053 6.47197C19.8674 6.41004 19.9167 6.33648 19.9503 6.25548C19.9839 6.17449 20.0012 6.08766 20.0012 5.99997C20.0012 5.91228 19.9839 5.82545 19.9503 5.74446C19.9167 5.66347 19.8674 5.5899 19.8053 5.52797L14.472 0.194638Z" fill="#141414"/>
</g>
<defs>
<clipPath id="clip0_79_27">
<rect width="20" height="20" fill="white"/>
</clipPath>
</defs>
</svg>
