<svg width="142" height="142" viewBox="0 0 142 142" fill="none" xmlns="http://www.w3.org/2000/svg">
<g clip-path="url(#clip0_72_16)">
<g clip-path="url(#clip1_72_16)">
<path d="M112.908 121.332L112.994 121.507C109.292 129.641 101.071 135.297 91.5678 135.297C82.8507 135.297 75.2421 130.545 71.1607 123.519C67.0782 130.545 59.4696 135.297 50.7536 135.297C42.0077 135.297 34.398 130.545 30.3166 123.461L30.3464 123.287C18.8601 121.799 9.9393 111.946 9.9393 99.9927C9.9393 93.7536 12.3579 88.0399 16.3821 83.8419C13.4733 81.6589 11.1132 78.8281 9.4888 75.5742C7.86443 72.3203 7.02052 68.7326 7.024 65.0958C7.024 57.5171 10.6382 50.7525 16.2072 46.4965C15.8865 44.9805 15.74 43.4361 15.74 41.832C15.74 28.8596 26.2643 18.3357 39.2093 18.3357C42.9686 18.3357 46.4976 19.2096 49.6447 20.8127C53.2604 12.5051 61.5398 6.70294 71.1607 6.70294C80.3723 6.70294 88.361 12.0379 92.1502 19.7635C94.7273 18.8168 97.4516 18.3334 100.197 18.3357C113.17 18.3357 123.665 28.8596 123.665 41.8316C123.665 45.5924 122.82 49.1498 121.216 52.2987C129.525 55.9129 135.297 64.1931 135.297 73.8136C135.297 81.6849 131.42 88.6518 125.501 92.9081C126.201 95.1245 126.58 97.5143 126.58 99.9927C126.58 109.439 120.983 117.63 112.908 121.332Z" fill="#FF8906"/>
<path d="M4.1087 99.9927C4.1087 113.701 13.6447 125.496 26.7194 128.545C32.1944 136.344 41.1538 141.127 50.7536 141.127C58.4405 141.127 65.7375 138.058 71.1607 132.837C76.5832 138.061 83.8798 141.127 91.5678 141.127C102.457 141.127 112.395 135.012 117.458 125.466C126.586 120.316 132.411 110.602 132.411 99.9927C132.408 98.3386 132.265 96.6877 131.985 95.0574C137.758 89.553 141.128 81.8773 141.128 73.8132C141.128 64.0411 136.244 55.1086 128.397 49.715C129.097 47.191 129.493 44.5636 129.493 41.8316C129.493 25.6608 116.351 12.5051 100.194 12.5051C98.3751 12.5051 96.5785 12.6815 94.8093 13.0146C89.3843 5.53425 80.5688 0.872314 71.1603 0.872314C61.3966 0.872314 52.4645 5.76055 47.0679 13.6184C44.5371 12.9063 41.9162 12.5007 39.209 12.5007C23.0523 12.5007 9.90906 25.6582 9.90906 41.8287C9.90906 42.6319 9.96482 43.395 10.0231 44.1591C4.44614 49.6224 1.19376 57.2168 1.19376 65.0958C1.19376 72.2802 3.90135 79.18 8.55709 84.4625C5.66729 89.0632 4.1087 94.4128 4.1087 99.9927ZM39.209 24.1663C41.9778 24.1663 44.5986 24.7869 46.9987 26.0084C47.0541 26.0339 47.1094 26.0452 47.1652 26.0722C47.2191 26.0977 47.2636 26.1334 47.319 26.1593C47.4414 26.2118 47.5693 26.2358 47.6943 26.2788C47.8969 26.3484 48.0948 26.4224 48.2956 26.4683C48.4789 26.5121 48.66 26.5394 48.8433 26.562C49.0412 26.5875 49.2405 26.6148 49.4384 26.6232C49.5055 26.6261 49.5751 26.6432 49.6421 26.6432C49.7186 26.6432 49.7886 26.6148 49.8611 26.6119C50.282 26.5962 50.7001 26.5356 51.1081 26.4312C51.1909 26.4097 51.2721 26.4013 51.3545 26.3754C51.8173 26.2333 52.2542 26.0256 52.6711 25.7719C52.7735 25.7107 52.8661 25.6382 52.9659 25.5715C53.3099 25.3324 53.6268 25.0565 53.9108 24.7487C53.9779 24.6787 54.0475 24.6175 54.1116 24.5446C54.385 24.2148 54.6371 23.8588 54.8405 23.4601C54.8762 23.3934 54.8904 23.3209 54.9217 23.2495C54.94 23.2094 54.9742 23.1799 54.9913 23.1401C57.7944 16.697 64.1403 12.5335 71.1607 12.5335C77.8127 12.5335 83.9964 16.3781 86.9176 22.3315C86.9587 22.4168 87.0171 22.4838 87.0626 22.5647C87.2507 22.9052 87.4715 23.2265 87.7218 23.5242C87.853 23.6795 87.9879 23.822 88.1333 23.9586C88.4031 24.2189 88.6983 24.4516 89.0144 24.6532C89.1653 24.7487 89.3147 24.8398 89.4739 24.9207C89.6488 25.0103 89.8274 25.0901 90.0133 25.1626C90.1743 25.2268 90.3339 25.2851 90.5005 25.335C90.6925 25.3933 90.8875 25.4359 91.0897 25.4746C91.2592 25.5074 91.4243 25.5329 91.5963 25.5471C91.7971 25.5686 91.9964 25.5741 92.2001 25.5741C92.3808 25.5741 92.5587 25.5657 92.7394 25.5442C93.1272 25.504 93.5101 25.4258 93.8826 25.311C93.9781 25.2822 94.0776 25.2709 94.1741 25.2352C96.1004 24.5235 98.1302 24.1663 100.203 24.1663C109.928 24.1663 117.84 32.0923 117.84 41.8316C117.84 44.6602 117.231 47.2894 116.027 49.6508C115.998 49.7066 115.989 49.762 115.962 49.8177C115.937 49.8702 115.901 49.9172 115.879 49.9711C115.823 50.0965 115.8 50.2288 115.756 50.3542C115.686 50.5466 115.617 50.7386 115.57 50.9336C115.525 51.1143 115.503 51.2951 115.476 51.4787C115.444 51.6721 115.423 51.867 115.411 52.0625C115.403 52.2487 115.414 52.4324 115.426 52.6164C115.438 52.8056 115.447 52.9947 115.476 53.1813C115.505 53.3649 115.552 53.5428 115.595 53.7206C115.642 53.9043 115.686 54.085 115.75 54.2632C115.812 54.4381 115.89 54.6021 115.968 54.7672C116.051 54.9392 116.129 55.1086 116.226 55.2723C116.318 55.4319 116.43 55.5784 116.54 55.7292C116.651 55.8816 116.761 56.0353 116.89 56.1764C117.016 56.3185 117.158 56.4439 117.298 56.5747C117.439 56.703 117.575 56.8312 117.729 56.9449C117.887 57.0645 118.059 57.1643 118.232 57.2693C118.351 57.3392 118.452 57.4289 118.577 57.4901C118.627 57.5145 118.677 57.5229 118.727 57.5458C118.788 57.5757 118.838 57.6151 118.899 57.6424C125.315 60.4411 129.467 66.787 129.467 73.8132C129.467 79.4861 126.711 84.8568 122.096 88.1733C122.032 88.2207 121.985 88.279 121.924 88.3256C121.759 88.4539 121.607 88.5935 121.461 88.7374C121.33 88.865 121.202 88.9907 121.086 89.1273C120.96 89.2738 120.852 89.4247 120.744 89.5829C120.636 89.7396 120.527 89.8944 120.435 90.0566C120.344 90.2177 120.268 90.3842 120.196 90.5537C120.12 90.7242 120.045 90.8937 119.987 91.0718C119.925 91.2526 119.884 91.4363 119.84 91.6225C119.799 91.8007 119.762 91.9727 119.738 92.1534C119.712 92.3429 119.706 92.5324 119.701 92.7274C119.693 92.9161 119.694 93.105 119.703 93.2937C119.715 93.4715 119.742 93.6468 119.77 93.8232C119.803 94.0338 119.843 94.2404 119.898 94.4481C119.918 94.5181 119.921 94.5903 119.942 94.6602C120.479 96.3598 120.75 98.1506 120.75 99.9898C120.75 106.87 116.718 113.17 110.476 116.03V116.033C108.866 116.75 107.675 118.191 107.232 119.927C104.197 125.738 98.1703 129.466 91.5678 129.466C85.7431 129.466 80.2965 126.531 76.9913 121.761V41.1327C76.9913 37.9142 74.3792 35.3021 71.1607 35.3021C67.9422 35.3021 65.3301 37.9142 65.3301 41.1327V121.761C62.0234 126.531 56.5787 129.466 50.7536 129.466C44.8034 129.466 39.2604 126.414 35.9839 121.47C35.3429 119.549 33.7358 118.068 31.7374 117.624C31.5257 117.573 31.3113 117.533 31.0953 117.505C22.3581 116.374 15.7699 108.847 15.7699 99.9927C15.7699 96.9906 16.5771 94.1336 17.9681 91.5857C21.8774 93.4578 26.1574 94.4278 30.4918 94.4241C33.7103 94.4241 36.3224 91.812 36.3224 88.5935C36.3224 85.375 33.7103 82.7629 30.4918 82.7629C26.6283 82.7629 22.9729 81.533 19.8765 79.177C15.478 75.8802 12.8546 70.6206 12.8546 65.0961C12.8546 59.6511 15.431 54.4297 19.7486 51.1285C19.8513 51.0502 19.9293 50.9551 20.0263 50.8698C20.1884 50.7273 20.3524 50.5877 20.4974 50.4267C20.6272 50.2875 20.734 50.1377 20.8447 49.9897C20.9588 49.8374 21.0725 49.6924 21.1723 49.5313C21.2707 49.3677 21.356 49.1968 21.4369 49.0248C21.5182 48.8582 21.6009 48.6917 21.6647 48.5164C21.7288 48.343 21.7758 48.1677 21.8214 47.9898C21.8713 47.8033 21.9208 47.6196 21.9525 47.4275C21.9821 47.2424 21.9937 47.0558 22.005 46.8696C22.0178 46.6831 22.032 46.4965 22.0262 46.3073C22.0207 46.0978 21.9879 45.8872 21.9595 45.678C21.9409 45.5501 21.9438 45.4204 21.9183 45.2895C21.6876 44.2091 21.5765 43.0775 21.5765 41.8291C21.5706 32.092 29.4824 24.166 39.2093 24.166L39.209 24.1663Z" fill="#1F1F1F"/>
<rect x="23.2128" y="12.1064" width="13.5745" height="35.7872" fill="white"/>
<path d="M30 1C13.992 1 1 13.992 1 30C1 46.008 13.992 59 30 59C46.008 59 59 46.008 59 30C59 13.992 46.008 1 30 1ZM32.9 44.5H27.1V38.7H32.9V44.5ZM32.9 32.9H27.1V15.5H32.9V32.9Z" fill="#E33629"/>
</g>
</g>
<defs>
<clipPath id="clip0_72_16">
<rect width="142" height="142" fill="white"/>
</clipPath>
<clipPath id="clip1_72_16">
<rect width="140.255" height="140.255" fill="white" transform="translate(0.872345 0.872314)"/>
</clipPath>
</defs>
</svg>
