<svg width="128" height="128" viewBox="0 0 128 128" fill="none" xmlns="http://www.w3.org/2000/svg">
<path d="M33.9937 3.99122C33.4637 3.99521 32.957 4.20906 32.5843 4.58594C32.2117 4.96281 32.0036 5.47199 32.0056 6.00196V25.9885C32.0042 26.3182 32.0841 26.6432 32.2384 26.9347C32.3927 27.2261 32.6165 27.4749 32.8901 27.6591L62.8018 47.6607C63.1302 47.884 63.5175 48.0046 63.9145 48.0073C64.3116 48.01 64.7004 47.8946 65.0318 47.6759L95.0948 27.6666C95.3714 27.4858 95.599 27.2393 95.7573 26.9491C95.9156 26.659 95.9996 26.3341 96.0019 26.0036V5.99441C96.0029 5.73007 95.9515 5.46815 95.8508 5.22374C95.7501 4.97934 95.6021 4.75728 95.4151 4.57036C95.2282 4.38345 95.0062 4.23538 94.7618 4.13468C94.5174 4.03398 94.2554 3.98266 93.9911 3.98366L33.9937 3.99122Z" fill="#141414"/>
<path d="M36.0045 7.98999H92.0031V24.9226L63.9207 43.609L36.0045 24.9377V7.98999Z" fill="#FFAA4C"/>
<path d="M74.0047 3.99122C73.741 3.99121 73.4799 4.04328 73.2363 4.14442C72.9928 4.24556 72.7716 4.39379 72.5855 4.58061C72.3994 4.76742 72.252 4.98914 72.1518 5.23306C72.0516 5.47697 72.0005 5.73827 72.0015 6.00196V39.3078C72.0035 39.6694 72.1034 40.0238 72.2905 40.3332C72.4777 40.6427 72.7451 40.8957 73.0644 41.0654C73.3837 41.2351 73.743 41.3153 74.1042 41.2973C74.4654 41.2793 74.815 41.1639 75.1159 40.9633L95.1024 27.6591C95.3791 27.4782 95.6067 27.2317 95.765 26.9416C95.9232 26.6514 96.0073 26.3266 96.0095 25.9961V5.99441C96.0105 5.73007 95.9592 5.46815 95.8585 5.22374C95.7578 4.97934 95.6097 4.75728 95.4228 4.57036C95.2359 4.38345 95.0138 4.23538 94.7694 4.13468C94.525 4.03398 94.2631 3.98266 93.9988 3.98366L74.0047 3.99122Z" fill="#141414"/>
<path d="M76.0002 7.98999H92.0031V24.9226L76.0002 35.5735V7.98999Z" fill="#82D173"/>
<path d="M33.9937 3.99121C33.4637 3.99521 32.957 4.20906 32.5843 4.58593C32.2117 4.9628 32.0036 5.47198 32.0056 6.00196V25.9885C32.0042 26.3182 32.0841 26.6432 32.2384 26.9347C32.3927 27.2261 32.6165 27.4749 32.8901 27.6591L52.8917 41.0389C53.1929 41.2358 53.5417 41.3479 53.9012 41.3635C54.2608 41.3791 54.6179 41.2975 54.935 41.1273C55.2521 40.9572 55.5175 40.7047 55.7034 40.3965C55.8892 40.0883 55.9885 39.7357 55.991 39.3758V6.00952C55.993 5.47954 55.7849 4.97036 55.4123 4.59349C55.0397 4.21662 54.5329 4.00277 54.0029 3.99877L33.9937 3.99121Z" fill="#141414"/>
<path d="M36.0045 7.98999H52.0074V35.634L36.0045 24.9302V7.98999Z" fill="#82D173"/>
<path d="M63.9962 44.0021C53.3912 44.0101 43.2227 48.2265 35.7238 55.7254C28.2249 63.2243 24.0085 73.3927 24.0005 83.9978C24.0085 94.6029 28.2249 104.771 35.7238 112.27C43.2227 119.769 53.3912 123.986 63.9962 123.994C74.602 123.988 84.772 119.773 92.2736 112.276C99.7751 104.779 103.995 94.6111 104.007 84.0054C104.001 73.3957 99.7837 63.2222 92.2816 55.7201C84.7794 48.2179 74.6059 44.0081 63.9962 44.0021Z" fill="#141414"/>
<path d="M63.9962 48.0009C83.8996 48.0009 100.008 64.0944 100.008 83.9978C100.008 103.901 83.9071 119.995 63.9962 119.995C44.0928 119.995 27.9993 103.909 27.9993 83.9978C27.9993 64.0868 44.0928 48.0009 63.9962 48.0009Z" fill="#FF8906"/>
<path d="M63.9963 53.9954C56.0402 54.0034 48.4125 57.1679 42.7875 62.7944C37.1624 68.4209 33.9998 76.0494 33.9938 84.0054C34.0038 91.9588 37.1682 99.5834 42.7928 105.207C48.4174 110.83 56.0429 113.992 63.9963 114C71.9509 113.992 79.5776 110.829 85.2024 105.204C90.8272 99.5791 93.9907 91.9525 93.9987 83.9978C93.9907 76.0431 90.8272 68.4165 85.2024 62.7917C79.5776 57.1669 71.9509 54.0034 63.9963 53.9954Z" fill="#141414"/>
<path d="M63.9962 58.0017C67.4125 57.9968 70.7961 58.666 73.9533 59.971C77.1105 61.276 79.9791 63.1913 82.3947 65.6069C84.8104 68.0226 86.7256 70.8912 88.0306 74.0483C89.3357 77.2055 90.0049 80.5891 89.9999 84.0054C90.0039 87.421 89.3339 90.8038 88.0285 93.9601C86.723 97.1164 84.8076 99.9841 82.392 102.399C79.9765 104.814 77.1082 106.728 73.9516 108.033C70.7949 109.338 67.4119 110.006 63.9962 110.001C60.58 110.006 57.1963 109.337 54.0392 108.032C50.882 106.727 48.0134 104.812 45.5978 102.396C43.1821 99.9806 41.2669 97.112 39.9619 93.9549C38.6568 90.7977 37.9876 87.4141 37.9926 83.9978C37.9876 80.5816 38.6568 77.1979 39.9619 74.0408C41.2669 70.8836 43.1821 68.015 45.5978 65.5994C48.0134 63.1837 50.882 61.2685 54.0392 59.9634C57.1963 58.6584 60.58 57.9968 63.9962 58.0017Z" fill="#FF9A2A"/>
</svg>
