<svg width="70" height="70" viewBox="0 0 70 70" fill="none" xmlns="http://www.w3.org/2000/svg">
<rect width="70" height="70" fill="white"/>
<path d="M56.0055 53.8281C55.8656 54.0704 55.6644 54.2717 55.422 54.4116C55.1797 54.5514 54.9048 54.6251 54.625 54.625H16.375C16.0953 54.6247 15.8207 54.5509 15.5787 54.4109C15.3366 54.2709 15.1356 54.0696 14.996 53.8274C14.8563 53.5852 14.7828 53.3105 14.7828 53.0308C14.7829 52.7512 14.8565 52.4765 14.9964 52.2344C18.0305 46.9889 22.7061 43.2277 28.1627 41.4447C25.4636 39.8379 23.3666 37.3895 22.1937 34.4756C21.0208 31.5617 20.8368 28.3433 21.6701 25.3146C22.5033 22.286 24.3077 19.6147 26.8061 17.7108C29.3045 15.8069 32.3588 14.7758 35.5 14.7758C38.6411 14.7758 41.6954 15.8069 44.1938 17.7108C46.6922 19.6147 48.4966 22.286 49.3298 25.3146C50.1631 28.3433 49.9791 31.5617 48.8062 34.4756C47.6333 37.3895 45.5363 39.8379 42.8372 41.4447C48.2938 43.2277 52.9694 46.9889 56.0035 52.2344C56.1437 52.4765 56.2177 52.7512 56.2181 53.031C56.2184 53.3107 56.1451 53.5857 56.0055 53.8281Z" fill="#82D173"/>
</svg>
