<svg width="220" height="220" viewBox="0 0 220 220" fill="none" xmlns="http://www.w3.org/2000/svg">
<g clip-path="url(#clip0_96_17)">
<path d="M5.07643 155.477C5.07643 176.979 20.0342 195.48 40.5429 200.264C49.1307 212.497 63.1842 219.999 78.2421 219.999C90.2996 219.999 101.745 215.185 110.252 206.995C118.758 215.19 130.203 219.999 142.262 219.999C159.342 219.999 174.931 210.407 182.873 195.433C197.19 187.356 206.327 172.118 206.327 155.477C206.322 152.882 206.099 150.293 205.66 147.736C214.714 139.102 220.001 127.062 220.001 114.413C220.001 99.0846 212.34 85.0734 200.03 76.613C201.129 72.6541 201.75 68.5328 201.75 64.2475C201.75 38.8824 181.136 18.2468 155.793 18.2468C152.94 18.2468 150.122 18.5235 147.346 19.0459C138.837 7.31256 125.009 0 110.251 0C94.9364 0 80.9258 7.66753 72.4609 19.9931C68.4911 18.8762 64.3801 18.24 60.1336 18.24C34.7908 18.24 14.1747 38.8784 14.1747 64.2429C14.1747 65.5027 14.2622 66.6996 14.3536 67.8983C5.60574 76.4678 0.50415 88.3801 0.50415 100.739C0.50415 112.008 4.75119 122.831 12.054 131.117C7.52119 138.333 5.07643 146.725 5.07643 155.477ZM60.1336 36.5382C64.4767 36.5382 68.5877 37.5117 72.3523 39.4277C72.4391 39.4677 72.526 39.4854 72.6135 39.5277C72.6981 39.5678 72.7678 39.6238 72.8547 39.6644C73.0468 39.7467 73.2474 39.7844 73.4435 39.8518C73.7613 39.961 74.0716 40.0771 74.3866 40.1491C74.6741 40.2177 74.9582 40.2605 75.2457 40.296C75.5561 40.336 75.8688 40.3789 76.1792 40.392C76.2843 40.3966 76.3935 40.4235 76.4987 40.4235C76.6187 40.4235 76.7285 40.3789 76.8422 40.3743C77.5025 40.3496 78.1582 40.2546 78.7983 40.0908C78.928 40.0571 79.0555 40.0439 79.1847 40.0033C79.9106 39.7804 80.596 39.4546 81.2499 39.0567C81.4105 38.9607 81.5557 38.847 81.7123 38.7424C82.2519 38.3673 82.7489 37.9345 83.1945 37.4517C83.2997 37.3419 83.4088 37.2459 83.5094 37.1316C83.9382 36.6143 84.3337 36.0558 84.6527 35.4305C84.7087 35.3259 84.731 35.2121 84.7801 35.1001C84.8087 35.0372 84.8624 34.9909 84.8893 34.9286C89.2861 24.822 99.2401 18.2914 110.252 18.2914C120.686 18.2914 130.386 24.3219 134.968 33.6602C135.032 33.794 135.124 33.8991 135.195 34.026C135.49 34.5601 135.837 35.0641 136.229 35.5311C136.435 35.7746 136.647 35.9981 136.875 36.2124C137.298 36.6208 137.761 36.9857 138.257 37.3019C138.493 37.4517 138.728 37.5946 138.978 37.7215C139.252 37.8621 139.532 37.9873 139.824 38.101C140.076 38.2016 140.327 38.2931 140.588 38.3714C140.889 38.4628 141.195 38.5297 141.512 38.5903C141.778 38.6418 142.037 38.6818 142.307 38.7041C142.622 38.7378 142.934 38.7464 143.254 38.7464C143.537 38.7464 143.816 38.7332 144.1 38.6995C144.708 38.6364 145.309 38.5139 145.893 38.3337C146.043 38.2885 146.199 38.2708 146.35 38.2148C149.372 37.0984 152.556 36.5382 155.807 36.5382C171.061 36.5382 183.471 48.9707 183.471 64.2475C183.471 68.6843 182.516 72.8084 180.627 76.5124C180.582 76.5999 180.569 76.6868 180.527 76.7742C180.487 76.8565 180.431 76.9303 180.395 77.0149C180.308 77.2115 180.272 77.419 180.202 77.6156C180.093 77.9174 179.984 78.2187 179.91 78.5245C179.841 78.808 179.805 79.0915 179.763 79.3796C179.714 79.6829 179.68 79.9886 179.662 80.2953C179.649 80.5874 179.667 80.8755 179.685 81.1641C179.705 81.4608 179.718 81.7575 179.763 82.0501C179.81 82.3382 179.883 82.6172 179.95 82.8961C180.024 83.1842 180.093 83.4677 180.194 83.7472C180.29 84.0216 180.413 84.2788 180.535 84.5378C180.665 84.8076 180.788 85.0734 180.939 85.33C181.084 85.5804 181.259 85.8102 181.433 86.0468C181.607 86.2858 181.779 86.527 181.982 86.7482C182.178 86.9711 182.402 87.1677 182.621 87.3729C182.842 87.5741 183.056 87.7754 183.297 87.9537C183.545 88.1412 183.816 88.2978 184.086 88.4624C184.273 88.5722 184.432 88.7128 184.628 88.8088C184.706 88.8471 184.784 88.8603 184.863 88.8963C184.959 88.9431 185.037 89.0049 185.133 89.0478C195.196 93.4377 201.709 103.392 201.709 114.413C201.709 123.311 197.387 131.735 190.148 136.938C190.047 137.012 189.973 137.103 189.877 137.176C189.619 137.378 189.38 137.597 189.152 137.822C188.946 138.022 188.746 138.22 188.563 138.434C188.366 138.664 188.196 138.9 188.027 139.149C187.857 139.394 187.687 139.637 187.542 139.892C187.399 140.144 187.281 140.405 187.167 140.671C187.049 140.939 186.93 141.205 186.839 141.484C186.743 141.768 186.678 142.056 186.608 142.348C186.544 142.627 186.486 142.897 186.448 143.181C186.408 143.478 186.399 143.775 186.39 144.081C186.378 144.377 186.379 144.673 186.394 144.969C186.412 145.248 186.455 145.523 186.499 145.8C186.551 146.13 186.614 146.454 186.7 146.78C186.731 146.89 186.736 147.003 186.769 147.113C187.611 149.779 188.036 152.588 188.036 155.472C188.036 166.264 181.712 176.146 171.921 180.632V180.637C169.396 181.762 167.527 184.022 166.833 186.746C162.072 195.86 152.618 201.708 142.262 201.708C133.125 201.708 124.582 197.104 119.398 189.621V63.1511C119.398 58.1027 115.3 54.0054 110.252 54.0054C105.204 54.0054 101.106 58.1027 101.106 63.1511V189.621C95.9196 197.104 87.3792 201.708 78.2421 201.708C68.9089 201.708 60.2142 196.921 55.0749 189.166C54.0694 186.152 51.5486 183.83 48.4139 183.133C48.0818 183.053 47.7456 182.99 47.4068 182.946C33.7019 181.172 23.3678 169.365 23.3678 155.477C23.3678 150.768 24.634 146.287 26.8158 142.29C32.9479 145.227 39.6613 146.748 46.4602 146.742C51.5086 146.742 55.6059 142.645 55.6059 137.597C55.6059 132.548 51.5086 128.451 46.4602 128.451C40.4 128.451 34.6662 126.522 29.8093 122.826C22.91 117.655 18.795 109.405 18.795 100.739C18.795 92.1984 22.8363 84.0085 29.6086 78.8303C29.7698 78.7074 29.8922 78.5582 30.0442 78.4244C30.2986 78.2009 30.5558 77.982 30.7833 77.7294C30.9868 77.511 31.1543 77.2761 31.328 77.044C31.507 76.8051 31.6853 76.5776 31.8419 76.3249C31.9962 76.0683 32.13 75.8002 32.2569 75.5304C32.3844 75.2692 32.5141 75.0079 32.6142 74.733C32.7148 74.4609 32.7885 74.186 32.8599 73.907C32.9383 73.6144 33.016 73.3263 33.0657 73.025C33.112 72.7347 33.1303 72.442 33.148 72.1499C33.168 71.8572 33.1903 71.5646 33.1812 71.2679C33.1726 70.9392 33.1212 70.6089 33.0766 70.2808C33.0474 70.0801 33.052 69.8766 33.012 69.6714C32.6502 67.9766 32.4758 66.2018 32.4758 64.2434C32.4667 48.9701 44.8768 36.5377 60.1342 36.5377L60.1336 36.5382Z" fill="#FF8906"/>
</g>
<defs>
<clipPath id="clip0_96_17">
<rect width="220" height="220" fill="white"/>
</clipPath>
</defs>
</svg>
